<svg xmlns="http://www.w3.org/2000/svg" width="301" height="71" viewBox="0 0 301 71">
  <path
    fill="#1e1f1f"
    d="M45.90 20.70L45.90 20.70L51 20.60Q60.90 20.60 65.40 23.40L65.40 23.40Q67.60 24.10 67.60 25.20L67.60 25.20Q67.60 26 65.65 26.30Q63.70 26.60 52.15 27.85Q40.60 29.10 36.30 29.30L36.30 29.30Q34.40 29.40 27.55 35.90Q20.70 42.40 14.50 50.20Q8.30 58.00 8.30 61.10L8.30 61.10Q8.30 61.60 8.80 61.95Q9.30 62.30 10.05 62.30Q10.80 62.30 12.40 61.70L12.40 61.70Q31.40 50.50 49.30 37.20L49.30 37.20Q50.20 37.90 50.20 38.90Q50.20 39.90 49.20 40.85Q48.20 41.80 46.25 43.60Q44.30 45.40 39 50.10Q33.70 54.80 29 58.50L29 58.50Q16.40 68.70 11.40 70.30L11.40 70.30Q9.60 70.80 7.15 70.80Q4.70 70.80 2.65 68.30Q0.60 65.80 0.60 61.50Q0.60 57.20 6.15 49.10Q11.70 41 21.30 32.50L21.30 32.50Q22.20 31.80 22.20 31.20Q22.20 30.60 20.10 30.60L20.10 30.60L13.80 30.80Q0.50 30.80 0.10 27.80L0.10 27.80Q-3 27.20-3 26L-3 26Q-3 25.60-2.60 25.55Q-2.20 25.50-1.90 25.45Q-1.60 25.40-0.90 25.30Q-0.20 25.20 10.15 23.70Q20.50 22.20 33.70 21.20L33.70 21.20L40.60 12Q41.20 10.80 44.80 10.80Q48.40 10.80 48.40 12.30L48.40 12.30Q48.40 12.80 47.60 14.10L47.60 14.10L45.10 17.60Q44.60 19.20 44.50 20L44.50 20Q44.50 20.70 45.90 20.70ZM57.70 58.00L57.70 58.00Q72.60 50 90.50 36.70L90.50 36.70Q91.40 37.40 91.40 38.40Q91.40 39.40 90.40 40.30Q89.40 41.20 87.55 42.90Q85.70 44.60 80.50 49Q75.30 53.40 70.80 57.00L70.80 57.00Q59 66.50 53.40 68.20L53.40 68.20Q51.60 68.70 49.50 68.70L49.50 68.70Q46.10 68.70 46.10 63.40L46.10 63.40Q46.10 62.30 47.05 60.10Q48 57.90 48.15 57.55Q48.30 57.20 48.40 57.00Q48.50 56.80 48.60 56.65Q48.70 56.50 48.70 56.30Q48.70 56.10 48.10 56.10L48.10 56.10Q47.60 56.10 44.80 58.75Q42 61.40 40.15 63.00Q38.30 64.60 35.95 66Q33.60 67.40 32.10 67.40L32.10 67.40Q28.10 67.40 28.10 63.70L28.10 63.70Q28.10 61.50 29.60 58.30L29.60 58.30Q33.10 50.90 40.10 43.50Q47.10 36.10 50.10 36L50.10 36Q51.20 36 52.10 36.80Q53 37.60 53 38.60Q53 39.60 51 41.60Q49 43.60 45.95 46.75Q42.90 49.90 41.65 52.00Q40.40 54.10 40.40 54.80Q40.40 55.50 41.20 55.50Q42 55.50 44.10 54.20L44.10 54.20Q49.80 50.30 57.15 44.60Q64.50 38.90 66.60 36.30L66.60 36.30Q67.10 34.50 69.60 34.50L69.60 34.50Q74.40 34.50 74.40 36.20L74.40 36.20Q74.40 36.90 69.70 41.40L69.70 41.40Q55.60 54.90 55.60 58.10L55.60 58.10Q55.60 58.60 56.05 58.60Q56.50 58.60 57.70 58.00ZM93.60 33.80L93.60 33.80Q94.40 33.80 96.25 34.60Q98.10 35.40 98.10 36.40L98.10 36.40Q98.10 37.10 97.60 37.80L97.60 37.80L90.10 48.20Q88.80 49.80 88.80 50Q88.80 50.20 88.90 50.20L88.90 50.20L89.40 49.90Q101 41.80 108.50 35.70L108.50 35.70Q109.90 34.70 110.85 34.70Q111.80 34.70 112.10 34.90L112.10 34.90L114.90 35.70Q115.90 36.20 115.90 37Q115.90 37.80 115.50 38.30L115.50 38.30Q113.60 40.40 111.15 43.05Q108.70 45.70 107.50 47.05Q106.30 48.40 104.80 50.10Q103.30 51.80 102.65 52.70Q102 53.60 101.20 54.75Q100.40 55.90 100.10 56.70L100.10 56.70Q99.50 59.00 99.50 60.70L99.50 60.70Q99.50 61.60 100.65 61.60Q101.80 61.60 104.85 60.20Q107.90 58.80 112.15 55.90Q116.40 53.00 123.45 47.65Q130.50 42.30 135.80 38.60L135.80 38.60Q136.70 39.30 136.70 40.30Q136.70 41.30 135.80 42.10L135.80 42.10Q132.60 45.20 127.70 49.85Q122.80 54.50 112.75 62.30Q102.70 70.10 98.70 70.10L98.70 70.10Q91 70.10 91 61.90L91 61.90Q91 58.80 93.40 55.40L93.40 55.40L97.70 49.50Q98.30 48.60 98.30 48.45Q98.30 48.30 97.70 48.80L97.70 48.80Q80.30 63.30 75.50 65.80L75.50 65.80Q74.70 66.30 73.50 66.30L73.50 66.30Q70.20 66.30 70.20 63.30L70.20 63.30Q70.20 62.30 70.70 61.50L70.70 61.50Q78.10 54.70 81.10 50.40L81.10 50.40Q83.50 48 86.15 43.70Q88.80 39.40 90.65 36.60Q92.50 33.80 93.60 33.80ZM125.60 58.50L125.60 58.50Q126.80 58.50 132.95 53.60Q139.10 48.70 144.70 43.80L144.70 43.80L150.20 38.90Q150.60 38.50 150.60 38.35Q150.60 38.20 150.30 38.20L150.30 38.20Q146.50 38.20 140.40 42.55Q134.30 46.90 129.85 51.75Q125.40 56.60 125.40 58.30L125.40 58.30Q125.40 58.50 125.60 58.50ZM142.90 60.00L142.90 60.00Q142.90 60.30 143.55 60.30Q144.20 60.30 149.40 57.30L149.40 57.30Q163 49.60 181.40 36.70L181.40 36.70Q182.30 37.40 182.30 38.40Q182.30 39.40 181.30 40.30Q180.30 41.20 178.45 42.90Q176.60 44.60 171.40 49Q166.20 53.40 161.70 57.00L161.70 57.00Q149.90 66.50 144.30 68.20L144.30 68.20Q142.50 68.70 140.40 68.70L140.40 68.70Q138.40 68.40 136.75 67.20Q135.10 66 135.10 64.40Q135.10 62.80 135.85 59.65Q136.60 56.50 136.60 56.25Q136.60 56.00 136.45 56.00Q136.30 56.00 135.90 56.40L135.90 56.40Q134.60 57.80 132.60 59.85Q130.60 61.90 125.75 65.35Q120.90 68.80 117.90 68.80L117.90 68.80Q117.40 68.70 116.65 68.45Q115.90 68.20 114.70 66.80Q113.50 65.40 113.50 62.80Q113.50 60.20 117.40 54.85Q121.30 49.50 126.90 44.35Q132.50 39.20 139.20 35.40Q145.90 31.60 150.90 31.60L150.90 31.60Q152.70 31.60 153.90 34.30L153.90 34.30Q153.80 33.60 160.40 25.25Q167 16.90 176.05 8.45Q185.10 0 190.10 0L190.10 0Q191.80 0 191.80 1.60L191.80 1.60Q191.80 4.10 188.45 8.40Q185.10 12.70 181.25 16.40Q177.40 20.10 171.30 25.70L171.30 25.70Q157.20 38.50 150.05 47.50Q142.90 56.50 142.90 60.00ZM193.40 36.70L193.40 36.70Q190.80 36.70 184.60 42.05Q178.40 47.40 178.40 48.60L178.40 48.60Q178.40 48.80 178.70 48.80L178.70 48.80Q180.90 48.80 187.45 43.90Q194 39 194 37.20L194 37.20Q194 36.70 193.40 36.70ZM172.10 68.70L172.10 68.70Q164.40 68.70 164.40 59.30L164.40 59.30Q164.40 53.40 169.55 46.75Q174.70 40.10 181.70 35.85Q188.70 31.60 194.10 31.60L194.10 31.60Q196.50 31.60 198.55 33.50Q200.60 35.40 200.60 37.20L200.60 37.20Q200.60 40.50 195.90 44.65Q191.20 48.80 186.05 51.35Q180.90 53.90 179.25 53.90Q177.60 53.90 176.80 52.40L176.80 52.40Q176.40 52.10 175.70 52.10Q175 52.10 173.40 54.75Q171.80 57.40 171.80 59.05Q171.80 60.70 173 61.10L173 61.10Q180.60 61.10 189.50 56.65Q198.40 52.20 214.10 41L214.10 41Q215.20 40.20 217.45 38.60Q219.70 37 220.10 36.70L220.10 36.70Q221 37.40 221 38.40Q221 39.40 220.10 40.20L220.10 40.20Q215.10 45.20 207.15 51.40Q199.20 57.60 188.90 63.15Q178.60 68.70 172.10 68.70ZM203.40 48.20L203.40 48.20Q208.90 44.40 214.90 40L214.90 40Q211.70 37.80 210.80 35.70L210.80 35.70Q210.50 35 210.50 34.70L210.50 34.70Q210.50 32.70 211.80 32.05Q213.10 31.40 216.00 31.40L216.00 31.40Q217.10 31.40 222.50 34.10Q227.90 36.80 229.35 36.80Q230.80 36.80 233.40 35.95Q236.00 35.10 237.55 35.10Q239.10 35.10 239.80 35.80L239.80 35.80Q242.30 39.10 242.30 39.80Q242.30 40.50 241.65 40.95Q241.00 41.40 237.55 43.80Q234.10 46.20 230.80 48.70Q227.50 51.20 224.60 54.30Q221.70 57.40 221.70 59.30L221.70 59.30Q221.70 59.60 222.20 59.60L222.20 59.60Q227.60 59.60 258.60 37.70L258.60 37.70Q259.30 37.70 259.30 38.95Q259.30 40.20 251.40 47.55Q243.50 54.90 233.55 61.95Q223.60 69 219.10 69L219.10 69Q212.10 69 212.10 62.00L212.10 62.00Q212.10 58.20 214.65 54.65Q217.20 51.10 225.40 45.10L225.40 45.10Q223.70 45.10 220.80 44.25Q217.90 43.40 217.10 42.20L217.10 42.20Q214.50 44.50 208.10 49.90L208.10 49.90Q206.60 51.00 204.20 51.00Q201.80 51.00 201.80 50.25Q201.80 49.50 203.40 48.20ZM259 62.70L259 62.70L259.80 56.30Q259.80 56.00 259.65 56.00Q259.50 56.00 259.10 56.40L259.10 56.40Q257.80 57.80 255.80 59.85Q253.80 61.90 248.95 65.35Q244.10 68.80 241.10 68.80L241.10 68.80Q240.60 68.70 239.85 68.45Q239.10 68.20 237.90 66.80Q236.70 65.40 236.70 62.80Q236.70 60.20 240.65 54.85Q244.60 49.50 250.10 44.35Q255.60 39.20 262.35 35.40Q269.10 31.60 274.10 31.60L274.10 31.60Q276 31.70 277.10 34.30L277.10 34.30Q278.10 33.30 278.90 33.30Q279.70 33.30 280.80 34.50L280.80 34.50Q281.40 34.60 282 35.15Q282.60 35.70 282.60 36.70Q282.60 37.70 281.20 38.90L281.20 38.90Q279.10 41.50 276.30 44.80Q273.50 48.10 272.30 49.55Q271.10 51.00 269.80 52.80L269.80 52.80Q267.60 55.90 267.40 57.80L267.40 57.80Q277.60 52.90 299.50 36.70L299.50 36.70Q300.40 37.40 300.40 38.40Q300.40 39.40 299.60 40.10Q298.80 40.80 297.65 41.80Q296.50 42.80 293.10 45.70Q289.70 48.60 286.55 51.25Q283.40 53.90 279.35 57.15Q275.30 60.40 272.10 62.70L272.10 62.70Q264.40 68.20 262.50 68.20Q260.60 68.20 259.80 67Q259 65.80 259 62.70ZM248.80 58.50L248.80 58.50Q250.00 58.50 256.15 53.60Q262.30 48.70 267.80 43.80L267.80 43.80L273.40 38.90Q273.80 38.50 273.80 38.35Q273.80 38.20 273.50 38.20L273.50 38.20Q269.70 38.20 263.60 42.55Q257.50 46.90 253.05 51.75Q248.60 56.60 248.60 58.30L248.60 58.30Q248.60 58.50 248.80 58.50Z"
  ></path>
</svg>
